# xmcd
#
# Track frame offsets:
#	150
#	21140
#	41453
#	57181
#	74150
#	91090
#	108041
#	124143
#	140037
#	157225
#	174257
#	192272
#	209562
#	225090
#
# Disc length: 3178
#
# Revision: 2
# Processed by: cddbd v1.5.1PL0 Copyright (c) Steve Scherf et al.
# Submitted via: audiograbber 1.82.02
# Normalized: r1:DSETVAR1
#
DISCID=be0c680e
DTITLE=Various Artist - Hot Hits Country Vol. 79
DYEAR=1998
DGENRE=Country
TTITLE0=Vince Gill - If You Ever Have Forever In Mind
TTITLE1=Faith Hill and Tim McGraw - Just To Hear You Say That You Love Me
TTITLE2=Martina McBride - Happy Girl
TTITLE3=Michael Peterson - When The Bartender Cries
TTITLE4=Shania Twain and Bryan White - From This Moment On
TTITLE5=Toby Keith - Double Wide Paradise
TTITLE6=Diamond Rio - You're Gone
TTITLE7=Lari White - Stepping Stone
TTITLE8=Dwight Yoakam - Things Change
TTITLE9=Jason Sellers w/ Martina McBride - This Small Divide
TTITLE10=Wynonna - Always Will
TTITLE11=Clay Walker - Ordinary People
TTITLE12=Restless Heart - No End To This Road
TTITLE13=Pam Tillis - I Said A Prayer
EXTD=
EXTT0=
EXTT1=
EXTT2=
EXTT3=
EXTT4=
EXTT5=
EXTT6=
EXTT7=
EXTT8=
EXTT9=
EXTT10=
EXTT11=
EXTT12=
EXTT13=
PLAYORDER=
